<svg xmlns="http://www.w3.org/2000/svg" version="1.1" xmlns:xlink="http://www.w3.org/1999/xlink" xmlns:svgjs="http://svgjs.dev/svgjs" viewBox="0 0 9.527661513552427 7.819396492198241"><g transform="matrix(1,0,0,1,0.7185786815809019,6.013317810617338)"><rect width="9.527661513552427" height="7.819396492198241" x="-0.718578681580902" y="-6.013317810617338" fill="#0e1425"></rect><g><path d=" M 0.426 0.008999999999999897 L 0.6945 0.008999999999999897 L 0.792 0.3374999999999998 L 0.891 0.008999999999999897 L 1.1595 0.008999999999999897 L 0.9795 0.5174999999999998 L 1.056 0.7349999999999999 L 1.2855 0.008999999999999897 L 1.6035 0.008999999999999897 L 1.2015 1.0739999999999998 L 0.9480000000000001 1.0739999999999998 L 0.792 0.6929999999999998 L 0.6375000000000001 1.0739999999999998 L 0.384 1.0739999999999998 L -0.018000000000000002 0.008999999999999897 L 0.2985 0.008999999999999897 L 0.5295 0.7349999999999999 L 0.603 0.5174999999999998 L 0.426 0.008999999999999897 Z M 2.12989599609375 1.0829999999999997 Q 2.0083959960937503 1.0829999999999997 1.90939599609375 1.0372499999999998 Q 1.8103959960937501 0.9914999999999998 1.73914599609375 0.9142499999999998 Q 1.66789599609375 0.8369999999999999 1.6296459960937502 0.7402499999999999 Q 1.59139599609375 0.6434999999999998 1.59139599609375 0.5399999999999998 Q 1.59139599609375 0.4334999999999999 1.63189599609375 0.3374999999999998 Q 1.6723959960937502 0.24149999999999983 1.74514599609375 0.16574999999999984 Q 1.8178959960937502 0.08999999999999986 1.9176459960937502 0.046499999999999764 Q 2.01739599609375 0.0029999999999998916 2.1358959960937502 0.0029999999999998916 Q 2.2573959960937504 0.0029999999999998916 2.35639599609375 0.04874999999999985 Q 2.45539599609375 0.0944999999999998 2.52589599609375 0.17249999999999988 Q 2.59639599609375 0.25049999999999983 2.63464599609375 0.34724999999999984 Q 2.67289599609375 0.44399999999999984 2.67289599609375 0.5459999999999998 Q 2.67289599609375 0.6509999999999998 2.6331459960937504 0.7469999999999999 Q 2.59339599609375 0.8429999999999999 2.52064599609375 0.9187499999999998 Q 2.44789599609375 0.9944999999999998 2.3488959960937503 1.0387499999999998 Q 2.24989599609375 1.0829999999999997 2.12989599609375 1.0829999999999997 Z M 1.8883959960937502 0.5429999999999998 Q 1.8883959960937502 0.5969999999999998 1.90339599609375 0.6472499999999999 Q 1.91839599609375 0.6974999999999998 1.9483959960937502 0.7372499999999998 Q 1.97839599609375 0.7769999999999999 2.02414599609375 0.8002499999999999 Q 2.0698959960937504 0.8234999999999999 2.13289599609375 0.8234999999999999 Q 2.1958959960937503 0.8234999999999999 2.2423959960937503 0.7994999999999999 Q 2.2888959960937503 0.7754999999999999 2.31814599609375 0.7342499999999998 Q 2.3473959960937503 0.6929999999999998 2.36164599609375 0.6427499999999998 Q 2.37589599609375 0.5924999999999998 2.37589599609375 0.5399999999999998 Q 2.37589599609375 0.4859999999999999 2.36089599609375 0.4364999999999998 Q 2.34589599609375 0.3869999999999998 2.31589599609375 0.34724999999999984 Q 2.28589599609375 0.3074999999999998 2.23939599609375 0.2849999999999998 Q 2.19289599609375 0.26249999999999984 2.13139599609375 0.26249999999999984 Q 2.0683959960937504 0.26249999999999984 2.02264599609375 0.28649999999999987 Q 1.97689599609375 0.3104999999999998 1.9468959960937502 0.35024999999999984 Q 1.9168959960937502 0.3899999999999998 1.90264599609375 0.4402499999999998 Q 1.8883959960937502 0.4904999999999998 1.8883959960937502 0.5429999999999998 Z M 3.292326416015625 1.0829999999999997 Q 3.1708264160156254 1.0829999999999997 3.0718264160156252 1.0372499999999998 Q 2.972826416015625 0.9914999999999998 2.9015764160156254 0.9142499999999998 Q 2.8303264160156254 0.8369999999999999 2.7920764160156253 0.7402499999999999 Q 2.753826416015625 0.6434999999999998 2.753826416015625 0.5399999999999998 Q 2.753826416015625 0.4334999999999999 2.7943264160156254 0.3374999999999998 Q 2.834826416015625 0.24149999999999983 2.907576416015625 0.16574999999999984 Q 2.9803264160156253 0.08999999999999986 3.080076416015625 0.046499999999999764 Q 3.1798264160156253 0.0029999999999998916 3.2983264160156254 0.0029999999999998916 Q 3.419826416015625 0.0029999999999998916 3.5188264160156253 0.04874999999999985 Q 3.6178264160156255 0.0944999999999998 3.6883264160156255 0.17249999999999988 Q 3.7588264160156255 0.25049999999999983 3.797076416015625 0.34724999999999984 Q 3.8353264160156253 0.44399999999999984 3.8353264160156253 0.5459999999999998 Q 3.8353264160156253 0.6509999999999998 3.795576416015625 0.7469999999999999 Q 3.7558264160156254 0.8429999999999999 3.6830764160156253 0.9187499999999998 Q 3.610326416015625 0.9944999999999998 3.511326416015625 1.0387499999999998 Q 3.4123264160156253 1.0829999999999997 3.292326416015625 1.0829999999999997 Z M 3.0508264160156253 0.5429999999999998 Q 3.0508264160156253 0.5969999999999998 3.0658264160156254 0.6472499999999999 Q 3.080826416015625 0.6974999999999998 3.1108264160156254 0.7372499999999998 Q 3.140826416015625 0.7769999999999999 3.186576416015625 0.8002499999999999 Q 3.232326416015625 0.8234999999999999 3.2953264160156253 0.8234999999999999 Q 3.3583264160156254 0.8234999999999999 3.4048264160156254 0.7994999999999999 Q 3.4513264160156254 0.7754999999999999 3.480576416015625 0.7342499999999998 Q 3.5098264160156254 0.6929999999999998 3.5240764160156255 0.6427499999999998 Q 3.538326416015625 0.5924999999999998 3.538326416015625 0.5399999999999998 Q 3.538326416015625 0.4859999999999999 3.5233264160156255 0.4364999999999998 Q 3.5083264160156253 0.3869999999999998 3.4783264160156255 0.34724999999999984 Q 3.4483264160156253 0.3074999999999998 3.4018264160156253 0.2849999999999998 Q 3.3553264160156253 0.26249999999999984 3.293826416015625 0.26249999999999984 Q 3.230826416015625 0.26249999999999984 3.185076416015625 0.28649999999999987 Q 3.139326416015625 0.3104999999999998 3.1093264160156253 0.35024999999999984 Q 3.079326416015625 0.3899999999999998 3.0650764160156254 0.4402499999999998 Q 3.0508264160156253 0.4904999999999998 3.0508264160156253 0.5429999999999998 Z M 3.9747568359375003 1.0739999999999998 L 3.9747568359375003 0.008999999999999897 L 4.705256835937501 0.008999999999999897 L 4.705256835937501 0.2639999999999998 L 4.2672568359375 0.2639999999999998 L 4.2672568359375 0.44099999999999984 L 4.6242568359375005 0.44099999999999984 L 4.6242568359375005 0.6779999999999998 L 4.2672568359375 0.6779999999999998 L 4.2672568359375 1.0739999999999998 L 3.9747568359375003 1.0739999999999998 Z M 5.470175537109376 0.3569999999999999 Q 5.470175537109376 0.3569999999999999 5.444675537109376 0.34199999999999986 Q 5.419175537109376 0.32699999999999985 5.377175537109375 0.3082499999999998 Q 5.335175537109375 0.28949999999999987 5.285675537109375 0.27449999999999986 Q 5.236175537109376 0.25949999999999984 5.188175537109376 0.25949999999999984 Q 5.150675537109375 0.25949999999999984 5.126675537109375 0.27149999999999985 Q 5.102675537109375 0.28349999999999986 5.102675537109375 0.31199999999999983 Q 5.102675537109375 0.33899999999999986 5.126675537109375 0.3554999999999998 Q 5.150675537109375 0.3719999999999998 5.194925537109375 0.38549999999999984 Q 5.239175537109375 0.3989999999999998 5.300675537109376 0.41849999999999987 Q 5.399675537109376 0.4484999999999998 5.471675537109375 0.4874999999999998 Q 5.543675537109376 0.5264999999999999 5.582675537109376 0.5872499999999998 Q 5.621675537109375 0.6479999999999999 5.621675537109375 0.7484999999999998 Q 5.621675537109375 0.8444999999999998 5.587175537109376 0.9097499999999998 Q 5.5526755371093754 0.9749999999999999 5.494175537109376 1.0139999999999998 Q 5.4356755371093755 1.053 5.363675537109375 1.07025 Q 5.291675537109375 1.0875 5.216675537109375 1.0875 Q 5.140175537109376 1.0875 5.056925537109375 1.0717499999999998 Q 4.973675537109376 1.0559999999999998 4.895675537109375 1.0282499999999999 Q 4.817675537109375 1.0005 4.753175537109375 0.9629999999999999 L 4.879175537109376 0.7064999999999999 Q 4.879175537109376 0.7064999999999999 4.909175537109376 0.7244999999999998 Q 4.939175537109375 0.7424999999999998 4.988675537109375 0.7649999999999999 Q 5.0381755371093755 0.7874999999999999 5.098925537109375 0.8054999999999999 Q 5.159675537109376 0.8234999999999999 5.221175537109375 0.8234999999999999 Q 5.269175537109375 0.8234999999999999 5.287925537109375 0.8107499999999999 Q 5.306675537109376 0.7979999999999998 5.306675537109376 0.7769999999999999 Q 5.306675537109376 0.7454999999999998 5.2736755371093755 0.7282499999999998 Q 5.240675537109375 0.7109999999999999 5.187425537109376 0.6952499999999998 Q 5.134175537109376 0.6794999999999998 5.069675537109376 0.6584999999999999 Q 4.976675537109376 0.6269999999999998 4.916675537109375 0.5872499999999998 Q 4.856675537109376 0.5474999999999999 4.8281755371093755 0.4927499999999998 Q 4.799675537109375 0.43799999999999983 4.799675537109375 0.3599999999999999 Q 4.799675537109375 0.24149999999999983 4.855175537109376 0.1619999999999998 Q 4.910675537109375 0.0824999999999998 5.001425537109376 0.04124999999999979 Q 5.092175537109376 -2.220446049250313e-16 5.197175537109375 -2.220446049250313e-16 Q 5.275175537109376 -2.220446049250313e-16 5.347925537109376 0.018749999999999822 Q 5.420675537109376 0.03749999999999987 5.4844255371093755 0.06449999999999978 Q 5.548175537109375 0.0914999999999998 5.596175537109375 0.11549999999999983 L 5.470175537109376 0.3569999999999999 Z M 6.583053955078125 1.0829999999999997 Q 6.455553955078125 1.0829999999999997 6.364053955078125 1.041 Q 6.272553955078125 0.9989999999999999 6.214803955078125 0.9254999999999999 Q 6.1570539550781245 0.8519999999999999 6.130053955078125 0.7567499999999998 Q 6.103053955078125 0.6614999999999998 6.103053955078125 0.5564999999999999 L 6.103053955078125 0.008999999999999897 L 6.395553955078125 0.008999999999999897 L 6.395553955078125 0.5564999999999999 Q 6.395553955078125 0.6089999999999998 6.406053955078125 0.6569999999999998 Q 6.4165539550781245 0.7049999999999998 6.4390539550781245 0.7424999999999998 Q 6.4615539550781245 0.7799999999999998 6.496803955078125 0.8017499999999999 Q 6.5320539550781245 0.8234999999999999 6.583053955078125 0.8234999999999999 Q 6.635553955078125 0.8234999999999999 6.671553955078124 0.8017499999999999 Q 6.707553955078125 0.7799999999999998 6.729303955078125 0.7417499999999999 Q 6.751053955078125 0.7034999999999998 6.761553955078125 0.6554999999999999 Q 6.772053955078125 0.6074999999999998 6.772053955078125 0.5564999999999999 L 6.772053955078125 0.008999999999999897 L 7.064553955078125 0.008999999999999897 L 7.064553955078125 0.5564999999999999 Q 7.064553955078125 0.6674999999999998 7.035303955078125 0.7634999999999998 Q 7.006053955078125 0.8594999999999998 6.947553955078125 0.9314999999999998 Q 6.889053955078125 1.0034999999999998 6.798303955078125 1.0432499999999998 Q 6.707553955078125 1.0829999999999997 6.583053955078125 1.0829999999999997 Z M 7.247525390625 1.0739999999999998 L 7.247525390625 0.008999999999999897 L 7.706525390625 0.008999999999999897 Q 7.784525390625 0.008999999999999897 7.850525390625 0.04049999999999976 Q 7.916525390625001 0.07199999999999984 7.964525390625001 0.12524999999999986 Q 8.012525390625001 0.17849999999999977 8.038775390625 0.24449999999999983 Q 8.065025390625001 0.3104999999999998 8.065025390625001 0.3779999999999998 Q 8.065025390625001 0.4724999999999998 8.020775390625001 0.5564999999999999 Q 7.976525390625 0.6404999999999998 7.897775390625 0.6937499999999999 Q 7.819025390625001 0.7469999999999999 7.714025390625 0.7469999999999999 L 7.540025390625001 0.7469999999999999 L 7.540025390625001 1.0739999999999998 L 7.247525390625 1.0739999999999998 Z M 7.540025390625001 0.4919999999999999 L 7.694525390625 0.4919999999999999 Q 7.712525390625 0.4919999999999999 7.729025390625001 0.4814999999999998 Q 7.745525390625001 0.47099999999999986 7.756775390625 0.4454999999999998 Q 7.7680253906250005 0.4199999999999998 7.7680253906250005 0.3779999999999998 Q 7.7680253906250005 0.33299999999999985 7.755275390625 0.3082499999999998 Q 7.7425253906250004 0.28349999999999986 7.723775390625001 0.2737499999999998 Q 7.705025390625001 0.2639999999999998 7.687025390625 0.2639999999999998 L 7.540025390625001 0.2639999999999998 L 7.540025390625001 0.4919999999999999 Z" fill="#ffffff" fill-rule="nonzero"></path></g><g></g><g clip-path="url(&quot;#SvgjsClipPath1023&quot;)"><path d=" M 2.9709094829005154 -5.2947391290364365 L 0.5419610133644537 -0.25 L 5.399857952436577 -0.25 Z M 2.9709094829005154 -4.864067881168696 L 0.8392736481451658 -0.4368421899643131 L 5.102545317655865 -0.4368421899643131 Z" fill="#bd2949" transform="matrix(1,0,0,1,0,0)" fill-rule="evenodd"></path><path d=" M 5.119594667490109 -5.2947391290364365 L 2.6906461979540466 -0.25 L 7.54854313702617 -0.25 Z M 5.119594667490109 -4.864067881168696 L 2.987958832734759 -0.4368421899643131 L 7.251230502245457 -0.4368421899643131 Z" fill="#de6d2e" transform="matrix(1,0,0,1,0,0)" fill-rule="evenodd"></path></g></g><defs><clipPath id="SvgjsClipPath1023"><path d=" M 0.5419610133644537 -5.2947391290364365 h 7.006582123661716 v 5.0447391290364365 h -7.006582123661716 Z"></path></clipPath></defs></svg>